<svg width="18" height="22" viewBox="0 0 18 22" fill="none" xmlns="http://www.w3.org/2000/svg">
<path d="M17 9.18182C17 15.5455 9 21 9 21C9 21 1 15.5455 1 9.18182C1 7.01187 1.84285 4.93079 3.34315 3.3964C4.84344 1.86201 6.87827 1 9 1C11.1217 1 13.1566 1.86201 14.6569 3.3964C16.1571 4.93079 17 7.01187 17 9.18182Z" stroke="white" stroke-width="1.3" stroke-linecap="round" stroke-linejoin="round"/>
<path d="M9.00016 11.9091C10.4729 11.9091 11.6668 10.6881 11.6668 9.18186C11.6668 7.67563 10.4729 6.45459 9.00016 6.45459C7.5274 6.45459 6.3335 7.67563 6.3335 9.18186C6.3335 10.6881 7.5274 11.9091 9.00016 11.9091Z" stroke="white" stroke-width="1.3" stroke-linecap="round" stroke-linejoin="round"/>
</svg>
